<!DOCTYPE svg PUBLIC "-//W3C//DTD SVG 1.1//EN" "http://www.w3.org/Graphics/SVG/1.1/DTD/svg11.dtd">
<!-- Uploaded to: SVG Repo, www.svgrepo.com, Transformed by: SVG Repo Mixer Tools -->
<svg fill="#ffffff" version="1.1" id="Capa_1" xmlns="http://www.w3.org/2000/svg" xmlns:xlink="http://www.w3.org/1999/xlink" width="64px" height="64px" viewBox="0 0 433.323 433.323" xml:space="preserve">
<g id="SVGRepo_bgCarrier" stroke-width="0"/>
<g id="SVGRepo_tracerCarrier" stroke-linecap="round" stroke-linejoin="round"/>
<g id="SVGRepo_iconCarrier"> <g> <g> <g> <path d="M353.977,64.246C334.905,40.385,285.367,0,220.669,0C177.41,0,136.247,18.086,98.325,53.752 c-0.064,0.063-0.129,0.125-0.191,0.189c-36.98,38.043-32.148,73.184-26.027,117.699c0.377,2.738,0.758,5.514,1.137,8.332 c1.014,7.566-5.607,19.236-12.012,30.521c-9.622,16.959-19.572,34.494-7.416,42.775c20.771,14.158,24.38,42.021,27.871,68.979 c0.83,6.402,1.688,13.021,2.762,19.459c1.85,11.104,11.219,16.502,28.641,16.502c7.746,0,16.021-0.957,24.027-1.883 c6.861-0.793,13.343-1.541,18.529-1.541c2.9,0,5.166,0.229,6.926,0.707c20.932,5.674,39.221,47.998,45.83,73.346 c0.537,2.059,2.121,3.678,4.166,4.256c0.541,0.154,1.092,0.229,1.64,0.229c1.522,0,3.014-0.578,4.145-1.658l107.291-102.395 c1.657-1.586,2.271-3.979,1.569-6.168c-9.473-29.641,10.214-58.565,27.588-84.102c7.58-11.141,14.74-21.66,19.64-32.025 C397.029,159.166,380.756,97.756,353.977,64.246z M327.799,226.958c-8.039,8.039-21.066,8.041-29.107,0l-33.438-33.437 c-3.69-3.69-5.682-8.433-5.983-13.261l-11.354-11.357c-26.827,16.874-62.77,13.646-86.104-9.691 c-27.088-27.085-27.088-71.158-0.002-98.244c27.089-27.086,71.158-27.086,98.247,0c23.333,23.335,26.562,59.277,9.688,86.102 l11.357,11.357c4.825,0.304,9.568,2.293,13.262,5.984l33.436,33.436C335.839,205.888,335.838,218.92,327.799,226.958z"/> <path d="M176.363,75.523c-19.059,19.061-19.059,50.073,0.002,69.136c19.059,19.06,50.074,19.06,69.137,0 c19.06-19.062,19.06-50.075,0-69.135C226.435,56.462,195.424,56.462,176.363,75.523z"/> </g> </g> </g> </g>
</svg>